HIERARCHY
ROOT Pelvis
{
	OFFSET 0.000000 0.000000 0.000000
	CHANNELS 6 Xposition Yposition Zposition Xrotation Yrotation Zrotation
	JOINT LeftUpLeg_virtual
	{
		OFFSET 0.000000 0.000000 0.000000
		CHANNELS 3 Xrotation Yrotation Zrotation
		JOINT LeftUpLeg
		{
			OFFSET 8.479700 -4.795502 -0.379100
			CHANNELS 3 Xrotation Yrotation Zrotation
			JOINT LeftLeg
			{
				OFFSET 0.024144 -32.555107 0.112900
				CHANNELS 3 Xrotation Yrotation Zrotation
				JOINT LeftFoot
				{
					OFFSET -0.024144 -32.638630 -3.012600
					CHANNELS 3 Xrotation Yrotation Zrotation
					JOINT LeftToeBase
					{
						OFFSET 0.970200 -13.225400 11.864200
						CHANNELS 3 Xrotation Yrotation Zrotation
						End Site
						{
							OFFSET 0 0 0
						}
					}
				}
			}
		}
	}
	JOINT RightUpLeg_virtual
	{
		OFFSET 0.000000 0.000000 0.000000
		CHANNELS 3 Xrotation Yrotation Zrotation
		JOINT RightUpLeg
		{
			OFFSET -8.479700 -4.795502 -0.379100
			CHANNELS 3 Xrotation Yrotation Zrotation
			JOINT RightLeg
			{
				OFFSET -0.023144 -32.555092 0.112900
				CHANNELS 3 Xrotation Yrotation Zrotation
				JOINT RightFoot
				{
					OFFSET 0.023144 -32.638641 -3.012700
					CHANNELS 3 Xrotation Yrotation Zrotation
					JOINT RightToeBase
					{
						OFFSET -0.970200 -13.225400 11.864200
						CHANNELS 3 Xrotation Yrotation Zrotation
						End Site
						{
							OFFSET 0 0 0
						}
					}
				}
			}
		}
	}
	JOINT Hips_virtual
	{
		OFFSET 0.000000 0.000000 0.000000
		CHANNELS 3 Xrotation Yrotation Zrotation
		JOINT Hips
		{
			OFFSET -0.000000 -0.000000 -0.000000
			CHANNELS 3 Xrotation Yrotation Zrotation
			JOINT Spine
			{
				OFFSET 0.000000 7.722000 1.166200
				CHANNELS 3 Xrotation Yrotation Zrotation
				JOINT Spine1
				{
					OFFSET 0.000000 12.024101 0.248800
					CHANNELS 3 Xrotation Yrotation Zrotation
					JOINT Spine2
					{
						OFFSET 0.000000 11.502998 -0.491200
						CHANNELS 3 Xrotation Yrotation Zrotation
						JOINT Neck_virtual
						{
							OFFSET 0.000000 0.000000 0.000000
							CHANNELS 3 Xrotation Yrotation Zrotation
							JOINT Neck
							{
								OFFSET 0.000000 18.430702 -3.123100
								CHANNELS 3 Xrotation Yrotation Zrotation
								JOINT Head
								{
									OFFSET 0.000000 9.051102 1.034000
									CHANNELS 3 Xrotation Yrotation Zrotation
									End Site
									{
										OFFSET 0 0 0
									}
								}
							}
						}
						JOINT LeftShoulder_virtual
						{
							OFFSET 0.000000 0.000000 0.000000
							CHANNELS 3 Xrotation Yrotation Zrotation
							JOINT LeftShoulder
							{
								OFFSET 6.197800 13.665199 -4.064700
								CHANNELS 3 Xrotation Yrotation Zrotation
								JOINT LeftArm
								{
									OFFSET 7.778100 -0.187103 -1.709300
									CHANNELS 3 Xrotation Yrotation Zrotation
									JOINT LeftForeArm
									{
										OFFSET 22.049376 0.000000 0.000000
										CHANNELS 3 Xrotation Yrotation Zrotation
										JOINT LeftHand
										{
											OFFSET 23.009392 0.000000 0.000000
											CHANNELS 3 Xrotation Yrotation Zrotation
											End Site
											{
												OFFSET 0 0 0
											}
										}
									}
								}
							}
						}
						JOINT RightShoulder_virtual
						{
							OFFSET 0.000000 0.000000 0.000000
							CHANNELS 3 Xrotation Yrotation Zrotation
							JOINT RightShoulder
							{
								OFFSET -6.197800 13.665199 -4.064700
								CHANNELS 3 Xrotation Yrotation Zrotation
								JOINT RightArm
								{
									OFFSET -7.778100 -0.187103 -1.709300
									CHANNELS 3 Xrotation Yrotation Zrotation
									JOINT RightForeArm
									{
										OFFSET -22.049376 0.000000 0.000000
										CHANNELS 3 Xrotation Yrotation Zrotation
										JOINT RightHand
										{
											OFFSET -23.009392 0.000000 0.000000
											CHANNELS 3 Xrotation Yrotation Zrotation
											End Site
											{
												OFFSET 0 0 0
											}
										}
									}
								}
							}
						}
					}
				}
			}
		}
	}
}
MOTION
Frames: 8
Frame Time: 0.03333333
1.479069 78.210945 -3.196449 0.000000 0.000000 0.000000 2.059523 -10.391203 -1.922393 -35.362065 2.475349 7.722410 30.822885 0.598737 2.729556 2.514833 0.166815 -4.335478 0.000000 0.000000 0.000000 2.059523 -10.391203 -1.922393 -15.716626 -10.958034 -12.494404 34.325334 -10.561819 2.750130 -16.541909 -2.286306 11.679466 0.000000 0.000000 0.000000 2.059523 -10.391203 -1.922393 0.000000 0.000001 0.000000 21.561181 5.788761 1.500186 2.971771 1.798109 -0.052723 0.000000 0.000000 0.000000 2.970858 1.873018 -0.065765 -3.972163 15.157916 2.233333 0.000000 0.000000 0.000000 2.970858 1.873018 -0.065765 1.350341 -32.914012 3.985060 -22.769902 -14.531408 -67.625922 0.000007 -44.195716 -9.360782 0.000000 0.000000 0.000000 2.970858 1.873018 -0.065765 9.555406 22.112647 -11.863567 -43.977846 10.617614 77.772980 -0.000003 50.389027 2.241422 0.000000 0.000000 0.000000 
1.557146 78.230133 -2.948090 0.000000 0.000000 0.000000 2.138135 -10.000938 -1.909021 -35.389853 2.464758 7.460838 31.012440 0.367189 2.771602 2.256045 0.173239 -4.195257 0.000000 0.000000 0.000000 2.138135 -10.000938 -1.909021 -15.307844 -11.019900 -12.555894 33.966729 -10.887078 2.764540 -16.525125 -2.351596 11.934010 0.000000 0.000000 0.000000 2.138135 -10.000938 -1.909021 0.000000 -0.000001 0.000000 21.516378 5.781926 1.253205 2.951614 1.865109 -0.160994 0.000000 0.000000 0.000000 2.950959 1.939448 -0.175155 -4.099839 15.090193 2.372696 0.000000 0.000000 0.000000 2.950959 1.939448 -0.175155 1.306150 -33.191291 4.056578 -22.439091 -14.543443 -67.584783 0.000029 -44.463674 -8.793754 0.000000 0.000000 0.000000 2.950959 1.939448 -0.175155 9.474260 21.562349 -11.639587 -44.239067 10.875449 78.236798 0.000052 50.076396 2.034991 0.000000 0.000000 0.000000 
1.629800 78.245308 -2.701063 0.000000 0.000000 0.000000 2.217328 -9.635314 -1.880154 -35.413260 2.440337 7.205399 31.209330 0.171108 2.792350 1.991611 0.178869 -4.058813 0.000000 0.000000 0.000000 2.217328 -9.635314 -1.880154 -14.929778 -11.107096 -12.626330 33.630154 -11.166133 2.749958 -16.519907 -2.416864 12.183755 0.000000 0.000000 0.000000 2.217328 -9.635314 -1.880154 0.000000 0.000000 0.000000 21.467498 5.755809 0.999700 2.933347 1.930219 -0.273806 0.000000 0.000000 0.000000 2.932949 2.004093 -0.288580 -4.241901 15.007609 2.532611 0.000000 0.000000 0.000000 2.932949 2.004093 -0.288580 1.253906 -33.456835 4.134839 -22.076206 -14.578427 -67.548126 0.000017 -44.717030 -8.228646 0.000000 0.000000 0.000000 2.932949 2.004093 -0.288580 9.408125 21.067911 -11.442653 -44.479872 11.089958 78.693403 0.000046 49.791010 1.848473 0.000000 0.000000 0.000000 
1.697427 78.255920 -2.456295 0.000000 0.000000 0.000000 2.297079 -9.292804 -1.839174 -35.443204 2.458599 6.955582 31.416510 -0.039526 2.827956 1.721205 0.183251 -3.928505 0.000000 0.000000 0.000000 2.297079 -9.292804 -1.839174 -14.563526 -11.132968 -12.699804 33.327833 -11.474173 2.757933 -16.526862 -2.482336 12.429154 0.000000 0.000000 0.000000 2.297079 -9.292804 -1.839174 0.000000 0.000000 0.000000 21.414508 5.724963 0.745700 2.917129 1.985256 -0.390848 0.000000 0.000000 0.000000 2.916586 2.058882 -0.406592 -4.390912 14.896789 2.706928 0.000000 0.000000 0.000000 2.916586 2.058882 -0.406592 1.216775 -33.714490 4.232026 -21.704821 -14.643564 -67.511434 0.000025 -44.942498 -7.663716 0.000000 0.000000 0.000000 2.916586 2.058882 -0.406592 9.352103 20.644020 -11.270546 -44.692151 11.251934 79.128520 0.000004 49.534202 1.683194 0.000000 0.000000 0.000000 
1.760518 78.261887 -2.214615 0.000000 0.000000 0.000000 2.376958 -8.972796 -1.790208 -35.478373 2.489086 6.713458 31.637105 -0.244205 2.865494 1.444378 0.190036 -3.805077 0.000000 0.000000 0.000000 2.376958 -8.972796 -1.790208 -14.218436 -11.143612 -12.773408 33.053546 -11.776353 2.759943 -16.544682 -2.546202 12.671926 0.000000 0.000000 0.000000 2.376958 -8.972796 -1.790208 0.000000 0.000000 0.000000 21.365042 5.688424 0.491212 2.896504 2.031294 -0.507783 0.000000 0.000000 0.000000 2.895729 2.104702 -0.524032 -4.533413 14.805552 2.906743 0.000000 0.000000 0.000000 2.895729 2.104702 -0.524032 1.196604 -33.968822 4.341378 -21.324035 -14.743428 -67.469141 -0.000009 -45.137046 -7.099047 0.000000 0.000000 0.000000 2.895729 2.104702 -0.524032 9.328142 20.301055 -11.130539 -44.882904 11.356069 79.521345 0.000024 49.310609 1.545341 0.000000 0.000000 0.000000 
1.819551 78.263428 -1.976778 0.000000 0.000000 0.000000 2.456574 -8.675550 -1.737252 -35.515751 2.499441 6.478222 31.870455 -0.409940 2.896587 1.162311 0.194156 -3.692583 0.000000 0.000000 0.000000 2.456574 -8.675550 -1.737252 -13.893342 -11.140665 -12.841253 32.803783 -12.070245 2.751833 -16.570649 -2.611463 12.912590 0.000000 0.000000 0.000000 2.456574 -8.675550 -1.737252 0.000000 0.000000 0.000000 21.312967 5.644181 0.242928 2.878258 2.069779 -0.624885 0.000000 0.000000 0.000000 2.876960 2.143172 -0.641693 -4.672442 14.693777 3.114028 0.000000 0.000000 0.000000 2.876960 2.143172 -0.641693 1.177282 -34.220662 4.459810 -20.925140 -14.883124 -67.421221 0.000016 -45.299980 -6.535518 0.000000 0.000000 0.000000 2.876960 2.143172 -0.641693 9.326589 20.046030 -11.021181 -45.044288 11.395508 79.862233 0.000025 49.125350 1.440780 0.000000 0.000000 0.000000 
1.874953 78.261002 -1.743456 0.000000 0.000000 0.000000 2.535983 -8.401735 -1.683501 -35.560304 2.527890 6.250131 32.115625 -0.572107 2.946762 0.875874 0.198790 -3.593346 0.000000 0.000000 0.000000 2.535983 -8.401735 -1.683501 -13.581287 -11.100827 -12.900078 32.578257 -12.377243 2.748784 -16.602884 -2.676268 13.150276 0.000000 0.000000 0.000000 2.535983 -8.401735 -1.683501 0.000000 0.000000 0.000000 21.257574 5.593864 0.001931 2.863291 2.101392 -0.739296 0.000000 0.000000 0.000000 2.861341 2.174722 -0.756903 -4.805660 14.576751 3.329095 0.000000 0.000000 0.000000 2.861341 2.174722 -0.756903 1.163592 -34.475062 4.583106 -20.508691 -15.062925 -67.358929 0.000029 -45.434855 -5.974968 0.000000 0.000000 0.000000 2.861341 2.174722 -0.756903 9.329337 19.881325 -10.944745 -45.155122 11.364819 80.149702 0.000047 48.985014 1.376330 0.000000 0.000000 0.000000 
1.927122 78.255241 -1.515203 0.000000 0.000000 0.000000 2.615878 -8.151832 -1.631291 -35.607272 2.527068 6.030577 32.370370 -0.690273 2.992004 0.586409 0.203466 -3.507817 0.000000 0.000000 0.000000 2.615878 -8.151832 -1.631291 -13.293870 -11.076786 -12.947831 32.366419 -12.653362 2.717826 -16.638525 -2.740679 13.385965 0.000000 0.000000 0.000000 2.615878 -8.151832 -1.631291 0.000000 0.000000 0.000000 21.201208 5.535406 -0.236655 2.849302 2.129481 -0.844700 0.000000 0.000000 0.000000 2.847443 2.202041 -0.862805 -4.929261 14.453375 3.540125 0.000000 0.000000 0.000000 2.847443 2.202041 -0.862805 1.163070 -34.736440 4.700199 -20.077621 -15.281495 -67.271961 0.000024 -45.545897 -5.419474 0.000000 0.000000 0.000000 2.847443 2.202041 -0.862805 9.325781 19.801676 -10.910309 -45.200423 11.259156 80.387898 -0.001075 48.894271 1.360712 0.000000 0.000000 0.000000 
